<svg width="45" height="43" viewBox="0 0 45 43" fill="none" xmlns="http://www.w3.org/2000/svg">
<path d="M0 0H45V43H0V0Z" fill="#2A7361"/>
<path d="M32 8L33.593 11L37 11.414L34.5 13.667L35 17L32 15.125L29 17L29.5 13.667L27 11.414L30.5 11L32 8Z" fill="white"/>
<path d="M31.717 19.249L29.779 18.751C29.4316 20.0892 28.6954 21.2945 27.6633 22.2145C26.6312 23.1345 25.3497 23.728 23.9805 23.9199C22.6113 24.1119 21.2159 23.8938 19.9706 23.293C18.7253 22.6923 17.686 21.736 16.984 20.5449C16.282 19.3538 15.9488 17.9813 16.0264 16.6009C16.104 15.2205 16.5891 13.8941 17.4202 12.7892C18.2514 11.6843 19.3914 10.8506 20.6961 10.3933C22.0009 9.93602 23.412 9.87571 24.751 10.22L25.25 8.283C23.298 7.77525 21.2319 7.93868 19.384 8.74701C17.5361 9.55534 16.0137 10.9616 15.0616 12.7397C14.1094 14.5178 13.7829 16.5644 14.1345 18.5505C14.4861 20.5366 15.4953 22.3468 17 23.69V36L23 32L29 36V23.708C30.3281 22.5243 31.2739 20.972 31.717 19.249ZM27 32.263L23 29.596L19 32.263V25.05C20.241 25.6734 21.6105 25.9986 22.9993 25.9997C24.3881 26.0007 25.758 25.6776 27 25.056V32.263Z" fill="white"/>
</svg>
